<?xml version="1.0" encoding="UTF-8" standalone="no"?>
<svg
   height="24.137932"
   viewBox="0 0 24.12797 24.137932"
   width="24.12797"
   fill="#ffffff"
   version="1.1"
   id="svg6"
   sodipodi:docname="info_grey_24dp.svg"
   inkscape:version="1.1.2 (b8e25be833, 2022-02-05)"
   xmlns:inkscape="http://www.inkscape.org/namespaces/inkscape"
   xmlns:sodipodi="http://sodipodi.sourceforge.net/DTD/sodipodi-0.dtd"
   xmlns="http://www.w3.org/2000/svg"
   xmlns:svg="http://www.w3.org/2000/svg">
  <defs
     id="defs10" />
  <sodipodi:namedview
     id="namedview8"
     pagecolor="#505050"
     bordercolor="#eeeeee"
     borderopacity="1"
     inkscape:pageshadow="0"
     inkscape:pageopacity="0"
     inkscape:pagecheckerboard="0"
     showgrid="false"
     inkscape:zoom="24.483572"
     inkscape:cx="1.7562797"
     inkscape:cy="14.356565"
     inkscape:window-width="1729"
     inkscape:window-height="804"
     inkscape:window-x="63"
     inkscape:window-y="78"
     inkscape:window-maximized="0"
     inkscape:current-layer="svg6"
     fit-margin-top="0"
     fit-margin-left="0"
     fit-margin-right="0"
     fit-margin-bottom="0" />
  <path
     d="M 0.06757566,0.06970393 H 24.067576 V 24.069704 H 0.06757566 Z"
     fill="none"
     id="path2" />
  <path
     style="fill:#666666;stroke:#658900;stroke-width:0.059239;stroke-dasharray:0.059239, 0.059239;stroke-opacity:0.763052"
     d="M 11.458785,24.100556 C 10.546441,24.031103 9.8767131,23.929496 9.1599833,23.751798 7.4991155,23.340021 5.8893133,22.54118 4.52755,21.453018 4.0336519,21.058352 3.0768199,20.101071 2.6860198,19.610622 0.57094664,16.956232 -0.32852977,13.646795 0.15844169,10.310924 0.46614548,8.2030796 1.3262565,6.2355762 2.6860198,4.5290905 3.0764135,4.0391516 4.033135,3.0818467 4.52755,2.6864376 c 3.6262524,-2.90010027 8.549907,-3.47468462 12.717311,-1.4840945 0.832795,0.3977906 1.620655,0.8927289 2.364221,1.4852173 0.492171,0.3921724 1.449357,1.3493589 1.841529,1.8415301 1.31175,1.6462292 2.157445,3.5324564 2.490795,5.5554375 0.123151,0.747358 0.157014,1.175534 0.157014,1.985328 0,0.431026 -0.01919,0.956093 -0.04263,1.166816 -0.270411,2.429955 -1.121235,4.511627 -2.605173,6.37395 -0.392172,0.492171 -1.349359,1.449357 -1.84153,1.841529 -1.808078,1.440716 -3.913666,2.319574 -6.182383,2.580488 -0.46443,0.05341 -1.630029,0.09365 -1.967913,0.06792 z M 13.49636,21.63305 c 4.231173,-0.666305 7.478779,-3.919985 8.137351,-8.152566 0.0522,-0.335438 0.06503,-0.613962 0.06503,-1.410628 0,-0.796666 -0.01284,-1.07519 -0.06503,-1.410628 C 20.972108,6.4071612 17.72293,3.1637364 13.461529,2.5015162 12.878136,2.4108575 11.248271,2.4125688 10.657688,2.5044588 7.6358402,2.9746446 5.0861483,4.7494501 3.5959966,7.4200049 3.0748697,8.3539352 2.6794246,9.525713 2.5028423,10.659226 c -0.093377,0.599403 -0.093231,2.218806 2.542e-4,2.821256 0.5156581,3.32307 2.6319069,6.085804 5.7034582,7.445785 0.7548218,0.334209 1.6684688,0.595306 2.4511333,0.700473 0.22988,0.03089 0.464984,0.06255 0.522454,0.07038 0.275386,0.03748 1.968823,-0.0094 2.316218,-0.06407 z"
     id="path456" />
  <path
     style="fill:#666666;stroke:#658900;stroke-width:0.0640001;stroke-dasharray:0.0640001, 0.0640001;stroke-opacity:0.763052"
     d="m 10.684424,14.076924 v -3.602557 h 1.383152 1.383152 v 3.602557 3.602558 h -1.383152 -1.383152 z"
     id="path495" />
  <path
     style="fill:#666666;stroke:#658900;stroke-width:0.0633488;stroke-dasharray:0.0633488, 0.0633488;stroke-opacity:0.763052"
     d="m 10.801186,7.3753608 v -1.285014 h 1.26639 1.26639 v 1.285014 1.285014 h -1.26639 -1.26639 z"
     id="path534" />
</svg>
