<?xml version="1.0" encoding="UTF-8" standalone="no"?>
<svg
   height="20.01487"
   viewBox="0 0 20.006609 20.01487"
   width="20.006609"
   fill="#ffffff"
   version="1.1"
   id="svg6"
   sodipodi:docname="info_grey_filled_24dp.svg"
   inkscape:version="1.1.2 (b8e25be833, 2022-02-05)"
   xmlns:inkscape="http://www.inkscape.org/namespaces/inkscape"
   xmlns:sodipodi="http://sodipodi.sourceforge.net/DTD/sodipodi-0.dtd"
   xmlns="http://www.w3.org/2000/svg"
   xmlns:svg="http://www.w3.org/2000/svg">
  <defs
     id="defs10" />
  <sodipodi:namedview
     id="namedview8"
     pagecolor="#505050"
     bordercolor="#eeeeee"
     borderopacity="1"
     inkscape:pageshadow="0"
     inkscape:pageopacity="0"
     inkscape:pagecheckerboard="0"
     showgrid="false"
     fit-margin-top="0"
     fit-margin-left="0"
     fit-margin-right="0"
     fit-margin-bottom="0"
     inkscape:zoom="17.3125"
     inkscape:cx="-2.3104693"
     inkscape:cy="4.8808664"
     inkscape:window-width="1671"
     inkscape:window-height="1040"
     inkscape:window-x="117"
     inkscape:window-y="9"
     inkscape:window-maximized="0"
     inkscape:current-layer="svg6" />
  <path
     d="M -1.9931051,-1.9918275 H 22.006895 V 22.008172 H -1.9931051 Z"
     fill="none"
     id="path2" />
  <path
     id="path49"
     style="fill:#666666;stroke:#658900;stroke-width:0.0491202;stroke-dasharray:0.0491202, 0.0491202;stroke-opacity:0.763052"
     d="M 9.8046875,0.05664062 C 7.6467769,0.10147807 5.5157281,0.84683989 3.7539062,2.2558594 3.3439436,2.5837277 2.550272,3.3789051 2.2265625,3.7851562 1.0990639,5.2001527 0.38600347,6.8303272 0.13085938,8.578125 c -0.40379061,2.766062 0.34191116,5.509951 2.09570312,7.710937 0.3240465,0.406675 1.1178098,1.202045 1.5273437,1.529297 1.1291572,0.90229 2.4646259,1.562857 3.8417969,1.904297 0.594303,0.147345 1.149746,0.233426 1.90625,0.291016 0.280169,0.02133 1.2457599,-0.01235 1.6308589,-0.05664 1.881192,-0.216347 3.627718,-0.946002 5.126954,-2.140625 0.408102,-0.325184 1.202159,-1.119242 1.527343,-1.527344 1.230463,-1.544215 1.935936,-3.270268 2.160157,-5.285156 0.01944,-0.174729 0.03516,-0.609396 0.03516,-0.966797 0,-0.6714704 -0.02874,-1.026784 -0.13086,-1.646484 C 19.575153,6.7131952 18.874796,5.1501887 17.787109,3.7851562 17.461925,3.377054 16.667868,2.5829969 16.259766,2.2578125 15.643211,1.7665286 14.989371,1.3552335 14.298828,1.0253906 c -1.295834,-0.61896454 -2.6801,-0.93752757 -4.0625,-0.96874998 -0.144,-0.0032523 -0.2877798,-0.0029892 -0.4316405,0 z M 8.8695566,4.280834 h 1.2128904 1.212891 V 5.5113028 6.7417715 H 10.082447 8.8695566 V 5.5113028 Z m 0.028881,4.7875254 h 1.2128905 1.212891 V 12.691406 16.3125 H 10.111328 8.8984375 v -3.621094 z"
     sodipodi:nodetypes="sssssssscsssssssssscccccccccccccccccc" />
</svg>
