<?xml version="1.0" encoding="UTF-8" standalone="no"?>
<svg
   height="24"
   viewBox="0 0 24 24"
   width="24"
   fill="#ffffff"
   version="1.1"
   id="svg6"
   sodipodi:docname="info_white_24dp.svg"
   inkscape:version="1.1.2 (b8e25be833, 2022-02-05)"
   xmlns:inkscape="http://www.inkscape.org/namespaces/inkscape"
   xmlns:sodipodi="http://sodipodi.sourceforge.net/DTD/sodipodi-0.dtd"
   xmlns="http://www.w3.org/2000/svg"
   xmlns:svg="http://www.w3.org/2000/svg">
  <defs
     id="defs10" />
  <sodipodi:namedview
     id="namedview8"
     pagecolor="#505050"
     bordercolor="#eeeeee"
     borderopacity="1"
     inkscape:pageshadow="0"
     inkscape:pageopacity="0"
     inkscape:pagecheckerboard="0"
     showgrid="false"
     inkscape:zoom="34.625"
     inkscape:cx="3.7111913"
     inkscape:cy="11.98556"
     inkscape:window-width="1920"
     inkscape:window-height="1017"
     inkscape:window-x="-8"
     inkscape:window-y="-8"
     inkscape:window-maximized="1"
     inkscape:current-layer="svg6"
     fit-margin-top="0"
     fit-margin-left="0"
     fit-margin-right="0"
     fit-margin-bottom="0" />
  <path
     d="M 0,0 H 24 V 24 H 0 Z"
     fill="none"
     id="path2" />
  <path
     d="m 11,7 h 2 v 2 h -2 z m 0,4 h 2 v 6 H 11 Z M 12,2 C 6.48,2 2,6.48 2,12 2,17.52 6.48,22 12,22 17.52,22 22,17.52 22,12 22,6.48 17.52,2 12,2 Z m 0,18 C 7.59,20 4,16.41 4,12 4,7.59 7.59,4 12,4 c 4.41,0 8,3.59 8,8 0,4.41 -3.59,8 -8,8 z"
     id="path4" />
  <path
     style="fill:#666666;stroke:#658900;stroke-width:0.0491202;stroke-dasharray:0.0491202, 0.0491202;stroke-opacity:0.763052"
     d="M 11.494585,21.975705 C 10.738081,21.918115 10.182751,21.833864 9.5884477,21.686519 8.2112771,21.345079 6.8764494,20.68269 5.7472924,19.7804 5.3377583,19.453148 4.5443653,18.659382 4.2203188,18.252708 2.4665268,16.051721 1.7206923,13.307578 2.1244829,10.541516 2.379627,8.7937178 3.0928202,7.1622888 4.2203188,5.7472924 4.5440283,5.3410412 5.3373297,4.5472561 5.7472924,4.2193878 8.7541352,1.8146612 12.836767,1.3382231 16.292326,2.9887954 c 0.690543,0.3298429 1.343827,0.7402395 1.960382,1.2315234 0.408102,0.3251844 1.201789,1.1188714 1.526973,1.5269736 1.087687,1.3650325 1.788926,2.9290683 2.065336,4.6064986 0.102115,0.6197 0.130194,0.974738 0.130194,1.646209 0,0.357401 -0.01591,0.79278 -0.03535,0.967509 -0.224221,2.014888 -0.929714,3.740984 -2.160177,5.285199 -0.325184,0.408102 -1.118871,1.201789 -1.526973,1.526973 -1.499236,1.194623 -3.245163,1.923361 -5.126354,2.139708 -0.3851,0.04429 -1.3516,0.07765 -1.631769,0.05632 z m 1.689531,-2.046025 c 3.508436,-0.552492 6.20131,-3.250402 6.747389,-6.760005 0.04328,-0.278141 0.05392,-0.50909 0.05392,-1.169675 0,-0.660585 -0.01065,-0.891534 -0.05392,-1.169675 -0.548593,-3.5257601 -3.24277,-6.215167 -6.77627,-6.7642717 -0.483742,-0.075173 -1.835206,-0.073754 -2.32491,0.00244 -2.5056775,0.3898721 -4.6198499,1.8615185 -5.8554649,4.0759089 -0.4321119,0.7744032 -0.76001,1.7460266 -0.9064298,2.6859208 -0.077427,0.497018 -0.077306,1.839806 2.108e-4,2.33935 0.4275772,2.755448 2.182344,5.046272 4.7292356,6.173951 0.6258888,0.277122 1.3834733,0.493621 2.0324483,0.580824 0.190614,0.02561 0.385559,0.05187 0.433213,0.05836 0.228346,0.03108 1.632523,-0.0078 1.920578,-0.05313 z"
     id="path456" />
  <path
     style="fill:#666666;stroke:#658900;stroke-width:0.0491202;stroke-dasharray:0.0491202, 0.0491202;stroke-opacity:0.763052"
     d="M 11.018051,14.00722 V 11.018051 H 12 12.981949 v 2.989169 2.98917 H 12 11.018051 Z"
     id="path495" />
  <path
     style="fill:#666666;stroke:#658900;stroke-width:0.0491202;stroke-dasharray:0.0491202, 0.0491202;stroke-opacity:0.763052"
     d="M 11.018051,8 V 7.0036101 H 12 12.981949 V 8 8.9963899 H 12 11.018051 Z"
     id="path534" />
</svg>
