<?xml version="1.0" encoding="UTF-8" standalone="no"?>
<svg
   height="20.01487"
   viewBox="0 0 20.006609 20.01487"
   width="20.006609"
   fill="#ffffff"
   version="1.1"
   id="svg6"
   sodipodi:docname="info_white_filled_24dp.svg"
   inkscape:version="1.1.2 (b8e25be833, 2022-02-05)"
   xmlns:inkscape="http://www.inkscape.org/namespaces/inkscape"
   xmlns:sodipodi="http://sodipodi.sourceforge.net/DTD/sodipodi-0.dtd"
   xmlns="http://www.w3.org/2000/svg"
   xmlns:svg="http://www.w3.org/2000/svg">
  <defs
     id="defs10" />
  <sodipodi:namedview
     id="namedview8"
     pagecolor="#505050"
     bordercolor="#eeeeee"
     borderopacity="1"
     inkscape:pageshadow="0"
     inkscape:pageopacity="0"
     inkscape:pagecheckerboard="0"
     showgrid="false"
     fit-margin-top="0"
     fit-margin-left="0"
     fit-margin-right="0"
     fit-margin-bottom="0"
     inkscape:zoom="34.625"
     inkscape:cx="9.9927798"
     inkscape:cy="10.00722"
     inkscape:window-width="1671"
     inkscape:window-height="1040"
     inkscape:window-x="36"
     inkscape:window-y="0"
     inkscape:window-maximized="0"
     inkscape:current-layer="svg6" />
  <path
     d="M -1.9931051,-1.9918275 H 22.006895 V 22.008172 H -1.9931051 Z"
     fill="none"
     id="path2" />
  <path
     d="m 10.006895,0.0081725 c -5.5200001,0 -10.00000006,4.48 -10.00000006,9.9999995 0,5.52 4.47999996,10 10.00000006,10 5.52,0 10,-4.48 10,-10 0,-5.5199995 -4.48,-9.9999995 -10,-9.9999995 z m 1,14.9999995 H 9.0068949 V 9.0081725 h 2.0000001 z m 0,-7.9999995 H 9.0068949 v -2 h 2.0000001 z"
     id="path4" />
  <path
     style="fill:#666666;stroke:#658900;stroke-width:0.0491202;stroke-dasharray:0.0491202, 0.0491202;stroke-opacity:0.763052"
     d="M 9.5014799,19.983877 C 8.7449759,19.926287 8.1896459,19.842036 7.5953426,19.694691 6.218172,19.353251 4.8833443,18.690862 3.7541873,17.788572 3.3446532,17.46132 2.5512602,16.667554 2.2272137,16.26088 0.47342174,14.059893 -0.27241276,11.31575 0.13137784,8.5496885 0.38652194,6.8018903 1.0997151,5.1704613 2.2272137,3.7554649 2.5509232,3.3492137 3.3442246,2.5554286 3.7541873,2.2275603 6.7610301,-0.1771663 10.843662,-0.6536044 14.299221,0.9969679 c 0.690543,0.3298429 1.343827,0.7402395 1.960382,1.2315234 0.408102,0.3251844 1.201789,1.1188714 1.526973,1.5269736 1.087687,1.3650325 1.788926,2.9290683 2.065336,4.6064986 0.102115,0.6197 0.130194,0.974738 0.130194,1.6462085 0,0.357401 -0.01591,0.79278 -0.03535,0.967509 -0.224221,2.014888 -0.929714,3.740984 -2.160177,5.285199 -0.325184,0.408102 -1.118871,1.201789 -1.526973,1.526973 -1.499236,1.194623 -3.245163,1.923361 -5.126354,2.139708 -0.3851,0.04429 -1.3516001,0.07765 -1.6317691,0.05632 z M 11.017725,12.015392 V 8.9973425 h -1.01083 -1.0108301 v 3.0180495 3.018051 h 1.0108301 1.01083 z m 0,-6.0072195 V 4.9829017 h -1.01083 -1.0108301 v 1.0252708 1.0252708 h 1.0108301 1.01083 z"
     id="path49" />
</svg>
