<?xml version="1.0" encoding="UTF-8" standalone="no"?>
<!DOCTYPE svg PUBLIC "-//W3C//DTD SVG 20010904//EN"
              "http://www.w3.org/TR/2001/REC-SVG-20010904/DTD/svg10.dtd">

<svg xmlns="http://www.w3.org/2000/svg"
     width="9.66667in" height="8.35556in"
     viewBox="0 0 870 752">
  <path id="Selection"
        fill="none" stroke="black" stroke-width="1"
        d="M 240.00,208.65
           C 240.00,208.65 282.00,208.00 282.00,208.00
             282.00,208.00 364.00,208.00 364.00,208.00
             364.00,208.00 621.00,208.00 621.00,208.00
             624.57,208.01 627.71,207.78 630.96,209.57
             639.19,214.10 640.26,226.28 633.66,232.47
             629.70,236.18 626.02,235.99 621.00,236.00
             621.00,236.00 316.00,236.00 316.00,236.00
             316.00,236.00 248.00,236.00 248.00,236.00
             242.98,235.99 239.30,236.18 235.34,232.47
             227.74,225.34 230.40,212.77 240.00,208.65 Z
           M 240.00,334.65
           C 240.00,334.65 282.00,334.00 282.00,334.00
             282.00,334.00 364.00,334.00 364.00,334.00
             364.00,334.00 621.00,334.00 621.00,334.00
             626.02,334.01 629.70,333.82 633.66,337.53
             640.26,343.72 639.19,355.90 630.96,360.43
             627.71,362.22 624.57,361.99 621.00,362.00
             621.00,362.00 316.00,362.00 316.00,362.00
             316.00,362.00 248.00,362.00 248.00,362.00
             242.98,361.99 239.30,362.18 235.34,358.47
             227.74,351.34 230.40,338.77 240.00,334.65 Z
           M 240.00,460.65
           C 240.00,460.65 282.00,460.00 282.00,460.00
             282.00,460.00 364.00,460.00 364.00,460.00
             364.00,460.00 621.00,460.00 621.00,460.00
             626.02,460.01 629.70,459.82 633.66,463.53
             640.26,469.72 639.19,481.90 630.96,486.43
             627.71,488.22 624.57,487.99 621.00,488.00
             621.00,488.00 316.00,488.00 316.00,488.00
             316.00,488.00 248.00,488.00 248.00,488.00
             242.98,487.99 239.30,488.18 235.34,484.47
             227.74,477.34 230.40,464.77 240.00,460.65 Z" />
</svg>
