<?xml version="1.0" encoding="UTF-8" standalone="no"?>
<!DOCTYPE svg PUBLIC "-//W3C//DTD SVG 20010904//EN"
              "http://www.w3.org/TR/2001/REC-SVG-20010904/DTD/svg10.dtd">

<svg xmlns="http://www.w3.org/2000/svg"
     width="6.48889in" height="7.86667in"
     viewBox="0 0 584 708">
  <path id="Selection"
        fill="none" stroke="black" stroke-width="1"
        d="M 436.00,233.00
           C 436.00,233.00 436.00,121.00 436.00,121.00
             435.95,87.78 405.93,59.05 373.00,59.00
             373.00,59.00 220.00,59.00 220.00,59.00
             187.86,59.05 157.15,87.24 157.00,120.00
             142.55,158.36 108.73,140.00 110.00,116.00
             110.10,108.19 112.13,98.52 114.29,91.00
             127.38,45.48 170.38,12.07 218.00,12.00
             218.00,12.00 375.00,12.00 375.00,12.00
             387.42,12.02 400.36,14.79 412.00,19.05
             452.10,33.76 482.93,74.81 483.00,118.00
             483.00,118.00 483.00,240.00 483.00,240.00
             492.44,241.48 505.25,249.41 513.00,255.01
             542.34,276.21 560.94,311.71 561.00,348.00
             561.00,348.00 561.00,573.00 561.00,573.00
             560.90,634.98 507.97,687.90 446.00,688.00
             446.00,688.00 147.00,688.00 147.00,688.00
             85.87,687.90 32.10,635.41 32.00,574.00
             32.00,574.00 32.00,346.00 32.00,346.00
             32.24,296.23 68.73,250.88 116.00,237.29
             124.78,234.77 133.84,233.01 143.00,233.00
             143.00,233.00 436.00,233.00 436.00,233.00 Z
           M 146.00,279.07
           C 134.86,280.89 129.63,281.09 119.00,286.26
             95.46,297.70 79.04,321.54 79.00,348.00
             79.00,348.00 79.00,378.00 79.00,378.00
             79.00,378.00 79.00,442.00 79.00,442.00
             79.00,442.00 79.00,572.00 79.00,572.00
             79.06,608.47 110.18,640.94 147.00,641.00
             147.00,641.00 446.00,641.00 446.00,641.00
             482.82,640.94 513.94,608.47 514.00,572.00
             514.00,572.00 514.00,348.00 514.00,348.00
             513.94,307.25 479.09,279.06 440.00,279.07
             440.00,279.07 246.00,279.07 246.00,279.07
             246.00,279.07 181.00,279.07 181.00,279.07
             181.00,279.07 146.00,279.07 146.00,279.07 Z
           M 289.00,381.64
           C 308.82,377.66 319.97,388.32 320.00,408.00
             320.00,408.00 320.00,513.00 320.00,513.00
             319.98,528.85 312.26,540.72 295.00,539.96
             279.23,539.27 273.02,527.14 273.00,513.00
             273.00,513.00 273.00,406.00 273.00,406.00
             273.14,394.32 277.67,385.91 289.00,381.64 Z
           M 110.00,116.18" />
</svg>
