<?xml version="1.0" encoding="UTF-8" standalone="no"?>
<!DOCTYPE svg PUBLIC "-//W3C//DTD SVG 20010904//EN"
              "http://www.w3.org/TR/2001/REC-SVG-20010904/DTD/svg10.dtd">

<svg xmlns="http://www.w3.org/2000/svg"
     width="9.72222in" height="9.72222in"
     viewBox="0 0 875 875">
  <path id="Imported Path"
        fill="none" stroke="black" stroke-width="1"
        d="M 583.12,363.00
           C 583.12,363.00 350.64,497.22 350.64,497.22
             350.64,497.22 350.64,497.22 350.64,497.22
             346.00,499.91 340.28,499.91 335.63,497.23
             330.99,494.54 328.13,489.59 328.13,484.23
             328.13,484.23 328.13,215.78 328.13,215.78
             328.13,210.41 330.99,205.46 335.63,202.77
             340.28,200.09 346.00,200.09 350.64,202.78
             350.64,202.78 583.13,337.00 583.13,337.00
             583.13,337.00 583.13,337.00 583.13,337.00
             587.77,339.69 590.63,344.64 590.63,350.00
             590.63,355.36 587.77,360.32 583.13,363.00
             583.13,363.00 583.12,363.00 583.12,363.00 Z" />
</svg>
