<?xml version="1.0" encoding="UTF-8" standalone="no"?>
<svg
   enable-background="new 0 0 24 24"
   viewBox="0 0 24 24"
   fill="black"
   width="18px"
   height="18px"
   version="1.1"
   id="svg8"
   sodipodi:docname="settings-black-18dp.svg"
   inkscape:version="1.1.2 (b8e25be833, 2022-02-05)"
   xmlns:inkscape="http://www.inkscape.org/namespaces/inkscape"
   xmlns:sodipodi="http://sodipodi.sourceforge.net/DTD/sodipodi-0.dtd"
   xmlns="http://www.w3.org/2000/svg"
   xmlns:svg="http://www.w3.org/2000/svg">
  <defs
     id="defs12" />
  <sodipodi:namedview
     id="namedview10"
     pagecolor="#505050"
     bordercolor="#eeeeee"
     borderopacity="1"
     inkscape:pageshadow="0"
     inkscape:pageopacity="0"
     inkscape:pagecheckerboard="0"
     showgrid="false"
     inkscape:zoom="46.166667"
     inkscape:cx="9"
     inkscape:cy="9.0108303"
     inkscape:window-width="1920"
     inkscape:window-height="1017"
     inkscape:window-x="-8"
     inkscape:window-y="-8"
     inkscape:window-maximized="1"
     inkscape:current-layer="svg8" />
  <g
     id="g6">
    <path
       d="M0,0h24v24H0V0z"
       fill="none"
       id="path2" />
    <path
       d="M19.14,12.94c0.04-0.3,0.06-0.61,0.06-0.94c0-0.32-0.02-0.64-0.07-0.94l2.03-1.58c0.18-0.14,0.23-0.41,0.12-0.61 l-1.92-3.32c-0.12-0.22-0.37-0.29-0.59-0.22l-2.39,0.96c-0.5-0.38-1.03-0.7-1.62-0.94L14.4,2.81c-0.04-0.24-0.24-0.41-0.48-0.41 h-3.84c-0.24,0-0.43,0.17-0.47,0.41L9.25,5.35C8.66,5.59,8.12,5.92,7.63,6.29L5.24,5.33c-0.22-0.08-0.47,0-0.59,0.22L2.74,8.87 C2.62,9.08,2.66,9.34,2.86,9.48l2.03,1.58C4.84,11.36,4.8,11.69,4.8,12s0.02,0.64,0.07,0.94l-2.03,1.58 c-0.18,0.14-0.23,0.41-0.12,0.61l1.92,3.32c0.12,0.22,0.37,0.29,0.59,0.22l2.39-0.96c0.5,0.38,1.03,0.7,1.62,0.94l0.36,2.54 c0.05,0.24,0.24,0.41,0.48,0.41h3.84c0.24,0,0.44-0.17,0.47-0.41l0.36-2.54c0.59-0.24,1.13-0.56,1.62-0.94l2.39,0.96 c0.22,0.08,0.47,0,0.59-0.22l1.92-3.32c0.12-0.22,0.07-0.47-0.12-0.61L19.14,12.94z M12,15.6c-1.98,0-3.6-1.62-3.6-3.6 s1.62-3.6,3.6-3.6s3.6,1.62,3.6,3.6S13.98,15.6,12,15.6z"
       id="path4" />
  </g>
  <path
     style="fill:#666666;stroke:#658900;stroke-width:0.00216606;stroke-opacity:0.763052"
     d="M 7.4296029,16.160635 C 7.3422511,16.121645 7.255886,16.02386 7.2271451,15.931408 7.2141827,15.889711 7.1493264,15.465704 7.0830201,14.98917 7.0167136,14.512635 6.9570069,14.092021 6.9503387,14.054472 6.9391079,13.991231 6.9156182,13.975049 6.6315622,13.834866 6.4629032,13.751633 6.1864245,13.591041 6.0171648,13.477996 L 5.70942,13.272459 4.794352,13.640352 c -0.8495588,0.341555 -0.923036,0.367232 -1.0263699,0.358663 -0.065354,-0.0054 -0.1373085,-0.02779 -0.1742991,-0.05418 -0.087791,-0.06264 -1.5614689,-2.608583 -1.581138,-2.731588 -0.010633,-0.0665 -0.00286,-0.111039 0.031935,-0.182908 0.039405,-0.0814 0.1586497,-0.182526 0.8327433,-0.706206 L 3.6639751,9.7129295 3.6468864,9.5893168 C 3.612598,9.341288 3.6025406,8.9208799 3.6257927,8.7075812 3.6387797,8.5884477 3.6545916,8.4422383 3.6609303,8.3826715 L 3.6724552,8.2743682 2.8896652,7.6696664 C 2.4571429,7.335545 2.088654,7.0350838 2.0661539,6.9981862 2.0157442,6.9155199 2.0132666,6.7686173 2.060717,6.6758196 2.2207643,6.3628189 3.5181577,4.1424589 3.5748717,4.0844944 c 0.063216,-0.06461 0.089208,-0.075436 0.1983958,-0.082633 0.1204333,-0.00794 0.1625171,0.00667 1.0137361,0.3518673 0.4884477,0.1980823 0.9027076,0.3613648 0.9205776,0.3628501 0.01787,0.00149 0.1015844,-0.046707 0.1860317,-0.1070942 C 6.1256593,4.4435517 6.472252,4.239123 6.7198867,4.1221287 6.886917,4.0432157 6.944236,4.0054557 6.952357,3.9689844 6.9582853,3.9423606 7.0224609,3.5021017 7.0949695,2.9906311 7.1674781,2.4791606 7.2398283,2.0356588 7.255748,2.0050716 c 0.03864,-0.074243 0.1168482,-0.145015 0.1915105,-0.1733038 0.0845,-0.032016 3.0205785,-0.032124 3.1054835,-1.144e-4 0.09117,0.034375 0.199956,0.1496171 0.222935,0.2361782 0.01118,0.042115 0.07472,0.4664644 0.141198,0.9429987 0.06648,0.4765343 0.12628,0.8971484 0.132891,0.9346979 0.01114,0.06327 0.03449,0.07936 0.318672,0.2196055 0.168659,0.083233 0.445424,0.2440166 0.615034,0.3572959 l 0.308382,0.2059622 0.914067,-0.3683484 c 0.850202,-0.3426128 0.921868,-0.3677015 1.025732,-0.3590883 0.06583,0.00546 0.137702,0.027799 0.175091,0.054422 0.08797,0.062642 1.560995,2.6080835 1.580745,2.7315882 0.0106,0.06626 0.0028,0.1109157 -0.03197,0.1826991 -0.03941,0.081401 -0.158654,0.182528 -0.832779,0.7062332 l -0.786788,0.6112284 0.02161,0.1344154 c 0.01823,0.1133783 0.02334,0.8820645 0.008,1.2056532 l -0.0046,0.096509 0.730122,0.5749724 c 0.401568,0.316234 0.759998,0.603808 0.796513,0.639054 0.09469,0.0914 0.123199,0.200659 0.08324,0.319025 -0.04736,0.140307 -1.461564,2.572957 -1.545643,2.658751 -0.06348,0.06477 -0.08905,0.07536 -0.198512,0.08219 -0.120088,0.0075 -0.165917,-0.0084 -1.035397,-0.360097 -0.831602,-0.336336 -0.913469,-0.365252 -0.953069,-0.336632 -0.267738,0.193504 -0.620005,0.40905 -0.872093,0.533621 -0.229721,0.113517 -0.31153,0.164467 -0.319113,0.198741 -0.0056,0.02535 -0.06937,0.463519 -0.141698,0.973711 -0.07232,0.510192 -0.139747,0.94882 -0.149826,0.974729 -0.02462,0.0633 -0.127789,0.158185 -0.202795,0.186523 -0.0982,0.0371 -3.0390109,0.02989 -3.1231391,-0.0077 z M 9.4133688,11.676032 C 10.565512,11.502353 11.502353,10.565512 11.676032,9.4133688 11.803851,8.5654534 11.54083,7.7416349 10.94538,7.1248588 9.8977135,6.0396721 8.2083269,6.0086138 7.1248588,7.0546204 6.0178022,8.1234002 6.0121828,9.8643353 7.11234,10.932974 c 0.2239549,0.217538 0.4088006,0.351445 0.6670781,0.483249 0.4930568,0.251616 1.0747394,0.344108 1.6339507,0.259809 z"
     id="path88"
     transform="scale(1.3333333)" />
  <path
     style="fill:#666666;stroke:#658900;stroke-width:0.00216606;stroke-opacity:0.763052"
     d="m 8.1552347,16.171518 c -0.4722395,-0.0085 -0.7182317,-0.02093 -0.7472925,-0.03776 -0.065111,-0.03771 -0.1351,-0.119126 -0.160873,-0.187149 -0.012631,-0.03334 -0.081814,-0.471965 -0.1537405,-0.97473 C 7.0214019,14.469115 6.9540643,14.038267 6.9436895,14.01444 6.9329218,13.989711 6.8193353,13.916445 6.6790198,13.843722 6.3701008,13.683615 6.2307173,13.601437 5.9488432,13.413225 5.8212663,13.32804 5.709086,13.267651 5.6889154,13.2733 5.6693984,13.2788 5.2684116,13.437929 4.7978339,13.626995 3.9853301,13.953438 3.934785,13.970761 3.7942521,13.970935 3.6553724,13.971109 3.6424995,13.966935 3.5850593,13.902615 3.5143513,13.823475 3.0552644,13.060536 2.6161525,12.292417 2.1654366,11.503999 2.0427379,11.271942 2.0310549,11.185834 2.0088159,11.021927 2.0536099,10.97908 3.0707236,10.191334 L 3.6720262,9.7256318 3.6555077,9.5740072 C 3.6339322,9.3759648 3.6343362,8.744431 3.6562145,8.4693141 L 3.6734397,8.2527076 3.2896836,7.9602888 C 2.6980825,7.5094941 2.1695501,7.0846384 2.1051761,7.0081343 2.0583354,6.9524673 2.0469518,6.9169744 2.0470358,6.8268578 2.0471336,6.7218749 2.06871,6.6771999 2.3888412,6.1191336 3.017002,5.0240968 3.5300247,4.1635174 3.5982255,4.0904296 c 0.059451,-0.063711 0.080723,-0.072379 0.1776257,-0.072379 0.1316179,0 0.2582167,0.044614 1.2245631,0.4315365 l 0.7116054,0.2849253 0.068178,-0.041122 C 5.8176955,4.6707736 5.9632685,4.5783897 6.1036934,4.4880931 6.2441183,4.3977966 6.4739549,4.2653157 6.6144414,4.1936916 6.7549278,4.1220674 6.8905904,4.0459367 6.9159136,4.0245126 6.9564017,3.9902584 6.9739012,3.9032531 7.0609811,3.3032491 7.2583967,1.9430018 7.2541144,1.9604541 7.4132591,1.8675087 c 0.066995,-0.039127 0.1382686,-0.040971 1.5839831,-0.040971 1.3255938,0 1.5219128,0.00418 1.5788198,0.033606 0.07095,0.036688 0.168658,0.1426656 0.187088,0.2029155 0.0064,0.020913 0.07034,0.4474093 0.142105,0.9477703 0.07176,0.500361 0.135432,0.9309443 0.141493,0.9568519 0.008,0.03414 0.08703,0.087309 0.28719,0.1931891 0.296826,0.1570107 0.669086,0.3803227 0.831419,0.4987523 0.05521,0.040276 0.110531,0.073228 0.122945,0.073228 0.01241,0 0.41562,-0.1578663 0.896015,-0.3508137 0.730532,-0.2934139 0.895742,-0.3523138 1.009723,-0.3599814 0.135299,-0.0091 0.136855,-0.00855 0.216606,0.076703 0.183014,0.1956401 1.536846,2.5545711 1.558419,2.7154047 C 15.991046,6.9780405 15.96813,7.000284 15,7.7547191 c -0.629964,0.4909126 -0.66042,0.5179557 -0.655705,0.5822192 0.0027,0.037066 0.0076,0.3679418 0.01083,0.7352785 l 0.0059,0.6678847 0.238267,0.1869247 c 0.820918,0.6440248 1.296806,1.0342418 1.334511,1.0942688 0.06713,0.106874 0.0447,0.212003 -0.100665,0.471882 -0.571169,1.021083 -1.339407,2.318063 -1.43135,2.416478 -0.05906,0.06321 -0.08107,0.07229 -0.175309,0.07229 -0.135437,0 -0.201154,-0.02288 -1.094112,-0.380998 -0.401912,-0.161184 -0.764709,-0.298573 -0.806215,-0.305309 -0.06713,-0.01089 -0.105347,0.0072 -0.346083,0.163635 -0.14884,0.09674 -0.400671,0.245084 -0.559625,0.329665 -0.158953,0.08458 -0.309805,0.169919 -0.335226,0.189641 -0.04149,0.03219 -0.05982,0.12894 -0.17915,0.945605 -0.07311,0.500361 -0.141163,0.947227 -0.151226,0.993036 -0.01975,0.08993 -0.08724,0.175146 -0.173601,0.219224 -0.06767,0.03454 -1.3919972,0.05368 -2.4259923,0.03507 z m 1.3584376,-4.505212 c 1.1041007,-0.215004 1.9718027,-1.09763 2.1608587,-2.1980242 0.04678,-0.2723112 0.04305,-0.7186624 -0.0082,-0.9819541 C 11.56078,7.9444254 11.312373,7.4799503 10.916212,7.0837884 10.597628,6.7652053 10.225556,6.5385784 9.801444,6.4047916 9.5234586,6.3171006 9.3010843,6.2850013 8.9783394,6.2859778 8.550764,6.2872709 8.1928161,6.3719541 7.8040932,6.5637784 7.0313053,6.9451282 6.4813293,7.6769682 6.3232536,8.534296 c -0.04523,0.2453039 -0.045347,0.69319 -2.47e-4,0.9422383 0.2018143,1.1144427 1.0833529,1.9954487 2.1987635,2.1974337 0.2515644,0.04556 0.7379108,0.0418 0.991902,-0.0077 z"
     id="path127"
     transform="scale(1.3333333)" />
  <path
     style="fill:#666666;stroke:#658900;stroke-width:0.00216606;stroke-opacity:0.763052"
     d="M 7.7612662,16.149315 C 7.4380729,16.137051 7.4186342,16.13379 7.3639012,16.08265 7.2500959,15.976317 7.2569692,16.008612 7.0504967,14.610108 6.9479794,13.915727 6.9967644,14.001898 6.5794215,13.778019 6.4275266,13.696537 6.1996612,13.563291 6.0730536,13.481916 5.9464462,13.400542 5.8084432,13.317551 5.7663806,13.297493 l -0.076478,-0.03647 -0.5597528,0.222702 c -0.3078641,0.122485 -0.5889947,0.235487 -0.6247347,0.251114 -0.03574,0.01563 -0.1722022,0.06916 -0.3032491,0.118968 -0.1965239,0.07469 -0.2665011,0.091 -0.3994242,0.0931 l -0.1611569,0.0025 -0.080277,-0.105699 C 3.4090298,13.643256 2.4664214,12.035758 2.1851596,11.496914 2.0803831,11.296182 2.0469314,11.210455 2.0469314,11.142674 c 0,-0.136764 0.036492,-0.169645 1.1569864,-1.04249 L 3.6569331,9.7472924 3.6600695,9.032491 C 3.6617946,8.6393502 3.6697182,8.3030686 3.6776776,8.2851986 3.6882607,8.2614381 3.6036194,8.1857734 3.3626828,8.0036101 2.862906,7.6257472 2.1910423,7.0844383 2.1262514,7.0074386 2.0443867,6.910148 2.0467912,6.7675837 2.1331833,6.5964418 2.2909626,6.2838827 3.4462561,4.3201345 3.5831759,4.131769 3.6472389,4.043635 3.6549319,4.039716 3.7636738,4.039832 c 0.06247,6.49e-5 0.1525717,0.010826 0.2002251,0.023911 0.077052,0.021157 0.6903117,0.252025 0.8014441,0.3017121 0.134173,0.059989 0.9248486,0.3673967 0.9449701,0.3673967 0.013165,0 0.1617084,-0.086452 0.3300968,-0.1921163 C 6.2087981,4.4350718 6.4684116,4.2831221 6.6173285,4.2030695 6.7662455,4.1230172 6.9040943,4.0432051 6.9236593,4.0257095 6.9644346,3.9892469 6.9955326,3.8265792 7.1052557,3.0758123 7.208911,2.3665638 7.2607664,2.0834443 7.3033839,1.9940746 7.3736071,1.8468148 7.3758474,1.8465144 8.4904746,1.8349074 c 0.5482895,-0.00571 1.2390764,-0.00308 1.5350824,0.00585 l 0.538192,0.016227 0.07455,0.065455 c 0.041,0.036 0.08426,0.083598 0.09613,0.1057733 0.01187,0.022175 0.07975,0.4375351 0.150851,0.9230221 0.0711,0.485487 0.136619,0.9204296 0.145595,0.9665391 0.01771,0.090952 0.03673,0.104467 0.568407,0.4039084 0.113177,0.063741 0.30907,0.1823307 0.435318,0.2635328 0.126247,0.081202 0.243629,0.1476403 0.260847,0.1476403 0.01722,0 0.372047,-0.1349123 0.788509,-0.2998051 0.943479,-0.3735585 1.014957,-0.3975177 1.160849,-0.3891123 0.108462,0.00625 0.118848,0.012134 0.191602,0.1085736 0.189296,0.2509234 1.000743,1.6375624 1.335718,2.2825382 0.230128,0.4430987 0.232285,0.4681566 0.05478,0.6365787 -0.06939,0.065841 -0.393141,0.3292774 -0.719446,0.5854146 -0.326305,0.2561372 -0.634144,0.5046932 -0.684087,0.5523466 l -0.0908,0.086643 0.01121,0.7256317 0.01121,0.7256318 0.05689,0.043321 c 0.233295,0.1776657 1.356011,1.0851328 1.438309,1.1625538 0.17255,0.162327 0.159918,0.208963 -0.254217,0.93853 -0.469254,0.826667 -1.045961,1.793385 -1.179123,1.976534 -0.06575,0.09043 -0.0692,0.09206 -0.195386,0.09206 -0.144484,0 -0.236293,-0.03163 -1.251196,-0.431037 -0.336032,-0.132244 -0.639104,-0.240443 -0.673494,-0.240443 -0.04007,0 -0.151259,0.05564 -0.309609,0.154937 -0.135896,0.08522 -0.393293,0.236614 -0.571994,0.336441 -0.1787,0.09983 -0.336198,0.196447 -0.349996,0.214712 -0.03282,0.04345 -0.07035,0.255684 -0.202629,1.145895 -0.06019,0.405054 -0.119089,0.766533 -0.13089,0.803287 -0.0118,0.03675 -0.05025,0.09441 -0.08545,0.12813 -0.06371,0.06104 -0.06567,0.06138 -0.448958,0.07799 -0.4379959,0.01898 -1.9266839,0.01844 -2.4359758,-8.85e-4 z m 1.7421314,-4.473849 c 1.0628804,-0.185351 1.9674664,-1.085808 2.1715474,-2.1616364 0.04352,-0.2293921 0.04352,-0.7982671 0,-1.0276592 C 11.49691,7.5476439 10.803458,6.7502311 9.8830051,6.4255848 9.5645978,6.3132819 9.3740762,6.2825404 9,6.283109 8.4179978,6.2839928 7.971608,6.41844 7.4927205,6.7370805 6.3798321,7.477571 5.9620016,8.9521501 6.52871,10.139201 c 0.15019,0.314594 0.3033284,0.530805 0.5523061,0.779783 0.3903505,0.39035 0.8323035,0.633522 1.355807,0.745993 0.2379767,0.05113 0.8017419,0.05667 1.0665745,0.01049 z"
     id="path166"
     transform="scale(1.3333333)" />
  <path
     style="fill:#666666;stroke:#658900;stroke-width:0.00216606;stroke-opacity:0.763052"
     d=""
     id="path242"
     transform="scale(1.3333333)" />
  <path
     style="fill:#666666;stroke:#658900;stroke-width:0.00216606;stroke-opacity:0.763052"
     d="M 7.5869814,16.128182 C 7.4372835,16.116871 7.4124019,16.108467 7.35324,16.049236 7.270312,15.96621 7.2447734,15.846511 7.0957978,14.842611 7.034856,14.431944 6.9717596,14.078549 6.9519113,14.036722 6.914869,13.958661 6.8349245,13.901261 6.5488336,13.747315 6.4575513,13.698196 6.2291036,13.564847 6.0411723,13.450985 5.8532411,13.337122 5.6891179,13.248082 5.6764542,13.253118 5.6637908,13.258154 5.308777,13.400233 4.887535,13.568849 4.0595717,13.90027 3.942375,13.938628 3.7577555,13.938628 H 3.6365262 L 3.5051893,13.738267 C 3.2272656,13.314281 2.3995296,11.890983 2.1868494,11.471373 2.0969657,11.294036 2.0685921,11.215225 2.0685921,11.142898 c 0,-0.08861 0.00941,-0.104132 0.1366648,-0.225526 0.075166,-0.0717 0.4352367,-0.363768 0.8001579,-0.649033 L 3.6689079,9.7496738 3.6756092,9.012021 C 3.682072,8.3006225 3.6807686,8.2725585 3.6389892,8.2235203 3.6151625,8.195554 3.3909747,8.0135801 3.1407942,7.8191342 2.5514103,7.3610515 2.180242,7.054453 2.1263818,6.9811928 2.053515,6.8820799 2.0704996,6.7456926 2.1824731,6.5307769 2.3767338,6.1579239 3.4840198,4.2818095 3.5983717,4.131769 c 0.05063,-0.066432 0.06142,-0.070397 0.1915441,-0.070397 0.1518554,0 0.3306418,0.057551 0.9429362,0.303527 0.5546484,0.2228186 0.9388897,0.3679551 0.9740495,0.3679205 0.018244,-1.82e-5 0.1403909,-0.064688 0.2714379,-0.1437119 C 6.1093863,4.5100839 6.3773216,4.3533977 6.5737512,4.2409157 6.7701806,4.1284339 6.938006,4.0249633 6.9466962,4.0109814 6.9739986,3.9670543 7.0067322,3.7879201 7.1057071,3.1407942 7.2720812,2.0529927 7.2999199,1.9400975 7.4143949,1.8889611 7.4583334,1.8693337 7.8575818,1.8628159 9.0159269,1.8628159 H 10.55893 l 0.08748,0.08748 0.08748,0.08748 0.118481,0.778946 c 0.18097,1.1897665 0.175693,1.1623192 0.232024,1.2069369 0.02705,0.021424 0.11741,0.078754 0.200804,0.1273993 0.08339,0.048646 0.337556,0.1994499 0.564805,0.3351203 0.22725,0.1356707 0.428841,0.2466737 0.447981,0.2466737 0.04378,0 0.236967,-0.071548 0.898956,-0.3329422 0.757882,-0.2992588 0.876371,-0.338538 1.021226,-0.338538 0.141249,0 0.153987,0.00969 0.299029,0.2274369 0.254853,0.3826033 0.994238,1.66427 1.266212,2.1948799 0.170374,0.3323935 0.184177,0.4122323 0.09051,0.5235476 -0.03162,0.037577 -0.350843,0.3028885 -0.709386,0.5895811 -0.358544,0.2866923 -0.693324,0.5608908 -0.743955,0.6093301 l -0.09206,0.088071 1.08e-4,0.4882698 c 6.5e-5,0.2685483 0.0064,0.5981883 0.01417,0.7325333 l 0.01408,0.2442632 0.305321,0.2414522 c 0.623912,0.493399 1.225355,0.993873 1.250223,1.04034 0.04496,0.08401 0.02304,0.186347 -0.08699,0.406145 -0.193119,0.38576 -1.23145,2.155767 -1.402726,2.391177 l -0.07679,0.105547 -0.16573,-0.01071 c -0.134992,-0.0087 -0.228028,-0.03472 -0.50148,-0.140144 -0.184657,-0.07119 -0.545306,-0.210216 -0.801444,-0.308945 -0.256137,-0.09873 -0.504693,-0.183735 -0.552346,-0.188902 -0.09495,-0.0103 -0.03749,-0.03992 -0.855472,0.441032 -0.267437,0.157245 -0.409111,0.253425 -0.426206,0.289342 -0.01408,0.02959 -0.06594,0.312104 -0.115227,0.627808 -0.21041,1.347683 -0.20473,1.319212 -0.27776,1.392243 -0.06122,0.06122 -0.0812,0.06717 -0.278672,0.08309 -0.24023,0.01936 -2.5269298,0.01889 -2.7845916,-5.83e-4 z M 9.5586749,11.673289 C 10.453122,11.489575 11.257602,10.79021 11.565535,9.9286501 11.683429,9.5987972 11.707581,9.4408993 11.707581,9 c 0,-0.5358717 -0.07348,-0.8594157 -0.285318,-1.2563177 C 11.224515,7.3731797 10.855451,6.9619653 10.521303,6.7398245 10.170191,6.5064056 9.7306735,6.3356454 9.3646265,6.2904353 9.1210975,6.2603573 8.6913752,6.2763983 8.4400811,6.3249474 7.66445,6.474796 6.9383831,7.0380511 6.5655938,7.7791031 6.0419411,8.8200503 6.2220947,10.034591 7.0234785,10.866024 c 0.3844105,0.398825 0.7884275,0.643834 1.2725504,0.771716 0.233531,0.06169 0.2460751,0.06288 0.6994692,0.0666 0.2876612,0.0024 0.4419638,-0.0061 0.5631768,-0.03105 z"
     id="path281"
     transform="scale(1.3333333)" />
  <path
     style="fill:#666666;stroke:#658900;stroke-width:0.00216606;stroke-opacity:0.763052"
     d="M 7.5000708,16.106115 C 7.407472,16.087586 7.3367285,16.03178 7.306057,15.953069 7.2692565,15.858628 7.2288221,15.636353 7.1153907,14.904944 7.0546263,14.513132 6.9883718,14.142735 6.9681589,14.081839 6.9361397,13.985375 6.9146744,13.960289 6.801444,13.887008 6.6257157,13.773279 5.9661455,13.389846 5.8049147,13.307688 l -0.1301032,-0.0663 -0.6605106,0.264759 C 4.1146743,13.866756 3.9637746,13.916968 3.7796925,13.916968 H 3.6312603 l -0.16059,-0.254513 C 3.1235771,13.112361 2.4691249,11.985178 2.2386217,11.540462 2.1144948,11.30098 2.0902527,11.236904 2.0902527,11.148297 c 0,-0.09967 0.0067,-0.112244 0.1137184,-0.213425 0.1023385,-0.09675 0.5613265,-0.466299 1.2235547,-0.9851212 l 0.239241,-0.1874333 0.015206,-0.3107616 c 0.00836,-0.170919 0.011861,-0.5073804 0.00777,-0.7476923 C 3.6824063,8.2725661 3.6816123,8.2661805 3.6281588,8.208566 3.5983755,8.176464 3.3693141,7.9886014 3.1191336,7.7910934 2.5953405,7.3775786 2.2068284,7.0568638 2.1444043,6.9864594 2.0706915,6.9033227 2.087804,6.7475569 2.1935538,6.5390781 2.3615961,6.2077932 3.4988796,4.278039 3.6058971,4.1425993 c 0.042352,-0.0536 0.060618,-0.059567 0.1823573,-0.059567 0.1801606,0 0.2559065,0.024184 1.0573077,0.3375786 0.90631,0.35442 0.8414617,0.3394174 1.026824,0.2375552 C 6.2752235,4.4367947 6.9452623,4.0312126 6.9630509,3.9979746 6.9818155,3.9629125 7.0554342,3.5347446 7.1923683,2.6642599 7.2242272,2.4617329 7.2689155,2.2229864 7.2916755,2.1337122 7.3620609,1.8576293 7.1776551,1.8855065 8.9843426,1.8778264 l 1.5643934,-0.00665 0.08958,0.093293 0.08959,0.093293 0.05791,0.3898917 c 0.144372,0.9719454 0.234019,1.4983295 0.262747,1.5427818 0.01713,0.026508 0.233338,0.1685456 0.48046,0.3156385 0.69324,0.4126328 0.733995,0.4337121 0.813472,0.4207371 0.03798,-0.0062 0.337104,-0.1155641 0.664721,-0.2430307 0.937806,-0.3648741 1.045243,-0.4007476 1.200191,-0.4007476 0.156432,0 0.161197,0.00374 0.331213,0.2599278 0.249639,0.3761677 0.974825,1.6393592 1.210046,2.1077608 0.126469,0.2518399 0.161077,0.3409975 0.161077,0.4149602 0,0.1132713 -0.0022,0.1154264 -0.666825,0.6537412 -0.246784,0.1998829 -0.553482,0.4504005 -0.68155,0.5567055 l -0.232852,0.1932823 0.0012,0.673959 c 6.86e-4,0.3706776 0.008,0.7093324 0.01624,0.7525664 0.01339,0.0702 0.0567,0.111705 0.404889,0.3880686 0.644281,0.511371 1.139477,0.933647 1.160876,0.989931 0.04722,0.124201 -0.05554,0.336095 -0.690728,1.42426 -0.322113,0.551824 -0.596007,1.006976 -0.746482,1.240487 l -0.12938,0.200776 -0.111223,-0.01271 c -0.225175,-0.02574 -0.323979,-0.05612 -0.883277,-0.27167 -0.71581,-0.275862 -0.978367,-0.366268 -1.063715,-0.366268 -0.105392,0 -1.201889,0.644936 -1.250305,0.735403 -0.01112,0.02077 -0.05972,0.2805 -0.10801,0.577175 -0.233621,1.43532 -0.222771,1.387428 -0.332754,1.468867 -0.0605,0.0448 -0.07657,0.04531 -1.5379063,0.04869 -0.8122237,0.0019 -1.5132908,-0.0039 -1.5579269,-0.01282 z m 2.2905429,-4.483278 c 0.7270073,-0.240063 1.3316993,-0.752799 1.6544013,-1.402815 0.110977,-0.2235392 0.194104,-0.4577651 0.231872,-0.6533354 0.03655,-0.1892805 0.04151,-0.8761133 0.0078,-1.0865422 C 11.560635,7.7045653 10.961695,6.9256897 10.194804,6.5426151 9.9851495,6.4378891 9.6354461,6.3222338 9.433213,6.2907388 9.1656533,6.2490702 8.5795936,6.2763433 8.3269219,6.3422218 7.4516151,6.5704386 6.7259599,7.2400544 6.4146117,8.1068519 6.2213885,8.6447872 6.2128629,9.2882229 6.3916748,9.837882 c 0.069329,0.213114 0.2223048,0.518634 0.3476441,0.694308 0.3985278,0.558571 0.9544947,0.954645 1.5745365,1.12171 0.1900579,0.05121 0.2220656,0.05327 0.7294659,0.04701 l 0.5306859,-0.0065 z"
     id="path320"
     transform="scale(1.3333333)" />
  <path
     style="fill:#666666;stroke:#658900;stroke-width:0.00216606;stroke-opacity:0.763052"
     d=""
     id="path359"
     transform="scale(1.3333333)" />
  <path
     style="fill:#666666;stroke:#658900;stroke-width:0.00216606;stroke-opacity:0.763052"
     d=""
     id="path398"
     transform="scale(1.3333333)" />
  <path
     style="fill:#666666;stroke:#658900;stroke-width:0.00216606;stroke-opacity:0.763052"
     d=""
     id="path437"
     transform="scale(1.3333333)" />
</svg>
